<?xml version="1.0" encoding="utf-8"?>
<!-- Generator: Adobe Illustrator 22.1.0, SVG Export Plug-In . SVG Version: 6.00 Build 0)  -->
<svg version="1.1" id="Capa_1" xmlns="http://www.w3.org/2000/svg" xmlns:xlink="http://www.w3.org/1999/xlink" x="0px" y="0px"
	 viewBox="0 0 150 150" style="enable-background:new 0 0 150 150;" xml:space="preserve">
<style type="text/css">
	.st0{fill:#FF6536;}
	.st1{fill:#FF421D;}
	.st2{fill:#FBBF00;}
	.st3{fill:#FFA900;}
</style>
<g>
	<path class="st0" d="M19.3,73.3c0,0,5.6,8.2,17.3,15.2c0,0-8.5-71.7,46.8-84.1c-14.2,52,18,66.6,29.7,39.2c19.6,26.1,4.7,49,4.7,49
		c8,1.2,14.8-7.6,14.8-7.6c0.1,1.1,0.1,2.2,0.1,3.3c0,31.8-25.8,57.7-57.7,57.7s-57.7-25.8-57.7-57.7C17.3,82.9,18,78,19.3,73.3z"/>
	<path class="st1" d="M132.6,84.8c0,0-6.7,8.8-14.8,7.6c0,0,14.9-22.8-4.7-49C101.4,70.9,69.2,56.2,83.3,4.3c-3,0.7-5.7,1.5-8.3,2.5
		v139c31.8,0,57.7-25.8,57.7-57.7C132.7,87,132.6,85.9,132.6,84.8z"/>
	<path class="st2" d="M49.7,120.4c0,14,11.3,25.3,25.3,25.3s25.3-11.3,25.3-25.3c0-7.5-3.2-14.2-8.4-18.8
		C82.1,114.9,68.2,94.7,79,80C79,80,49.7,83.7,49.7,120.4z"/>
	<path class="st3" d="M100.3,120.4c0-7.5-3.2-14.2-8.4-18.8C82.1,114.9,68.2,94.7,79,80c0,0-1.6,0.2-4,1v64.7
		C89,145.7,100.3,134.4,100.3,120.4z"/>
</g>
</svg>
