<?xml version="1.0" encoding="utf-8"?>
<!-- Generator: Adobe Illustrator 22.1.0, SVG Export Plug-In . SVG Version: 6.00 Build 0)  -->
<svg version="1.1" id="Capa_1" xmlns="http://www.w3.org/2000/svg" xmlns:xlink="http://www.w3.org/1999/xlink" x="0px" y="0px"
	 viewBox="0 0 150 150" style="enable-background:new 0 0 150 150;" xml:space="preserve">
<style type="text/css">
	.st0{fill:#FFB125;}
	.st1{fill:#FF901D;}
	.st2{fill:#61AFF6;}
	.st3{fill:#55A2F0;}
	.st4{fill:#FFFFFF;}
</style>
<g>
	<path class="st0" d="M3.6,94.2l10.9,1.7c0.2,0,0.3,0.1,0.3,0.3l1.6,10.3c0,0.2,0.1,0.3,0.3,0.3l10.3,1.6c0.2,0,0.3,0.1,0.3,0.3
		l1.7,11.1c0,0.2,0.1,0.3,0.3,0.3l11.1,1.7c0.2,0,0.3,0.1,0.3,0.3l1.7,11c0,0.2,0.1,0.3,0.3,0.3l11,1.7c0.2,0,0.3,0.1,0.3,0.3
		l1.7,10.9c0,0.3,0.4,0.4,0.6,0.2l90.1-90.1c0.2-0.2,0.1-0.6-0.2-0.6l-10.9-1.7c-0.2,0-0.3-0.1-0.3-0.3l-1.7-11
		c0-0.2-0.1-0.3-0.3-0.3l-11-1.7c-0.2,0-0.3-0.1-0.3-0.3l-1.7-11.1c0-0.2-0.1-0.3-0.3-0.3l-11.1-1.7c-0.2,0-0.3-0.1-0.3-0.3
		l-1.6-10.3c0-0.2-0.1-0.3-0.3-0.3l-10.3-1.6c-0.2,0-0.3-0.1-0.3-0.3L94.2,3.6c0-0.3-0.4-0.4-0.6-0.2L3.5,93.6
		C3.2,93.8,3.3,94.2,3.6,94.2z"/>
	<path class="st1" d="M122.1,40.7c-0.2,0-0.3-0.1-0.3-0.3l-1.7-11.1c0-0.2-0.1-0.3-0.3-0.3l-11.1-1.7c-0.2,0-0.3-0.1-0.3-0.3
		l-1.6-10.3c0-0.2-0.1-0.3-0.3-0.3l-10.3-1.6c-0.2,0-0.3-0.1-0.3-0.3L94.2,3.6c0-0.3-0.4-0.4-0.6-0.2l-8.8,8.8
		c0.2-0.2,0.6-0.1,0.6,0.2l1.7,10.9c0,0.2,0.1,0.3,0.3,0.3l10.3,1.6c0.2,0,0.3,0.1,0.3,0.3l1.6,10.3c0,0.2,0.1,0.3,0.3,0.3l11.1,1.7
		c0.2,0,0.3,0.1,0.3,0.3l1.7,11.1c0,0.2,0.1,0.3,0.3,0.3l11,1.7c0.2,0,0.3,0.1,0.3,0.3l1.6,9.9c0.1,0.9-0.1,1.8-0.8,2.4L54,135.4
		c0,0,0.1,0.1,0.1,0.1l1.7,10.9c0,0.3,0.4,0.4,0.6,0.2l81.3-81.3l8.8-8.8c0.2-0.2,0.1-0.6-0.2-0.6l-10.9-1.7c0,0-0.1,0-0.1,0
		c0,0,0,0-0.1,0c-0.1-0.1-0.1-0.1-0.2-0.2l-1.7-11c0-0.2-0.1-0.3-0.3-0.3L122.1,40.7z"/>
	<path class="st2" d="M3.5,93.6c-0.2,0.2-0.1,0.6,0.2,0.6l10.9,1.7c0.2,0,0.3,0.1,0.3,0.3l1.6,10.3c0,0.2,0.1,0.3,0.3,0.3l10.3,1.6
		c0.2,0,0.3,0.1,0.3,0.3l1.7,11.1c0,0.2,0.1,0.3,0.3,0.3l11.1,1.7c0.2,0,0.3,0.1,0.3,0.3l1.7,11c0,0.2,0.1,0.3,0.3,0.3l11,1.7
		c0.2,0,0.3,0.1,0.3,0.3l1.7,10.9c0,0.3,0.4,0.4,0.6,0.2l17.9-17.9l-53-53L3.5,93.6z"/>
	<path class="st3" d="M54,135.4L54,135.4C54,135.4,54,135.4,54,135.4c0,0.1,0.1,0.1,0.1,0.1l1.7,10.9c0,0.1,0,0.1,0.1,0.2
		s0.1,0.1,0.2,0.1c0,0,0.1,0,0.1,0c0.1,0,0.1,0,0.2-0.1c0,0,0.1,0,0.1-0.1l17.9-17.9l-6.8-6.8L54,135.4z"/>
	<g>
		<g>
			<path class="st4" d="M81.4,43.2l-7.9,8c0.2-1,0.3-1.8,0.3-2.5c0-4.1-3.4-7.4-7.4-7.4c-4,0-7.4,3.5-7.4,7.4c0,2.2,1.6,9.6,5,12.1
				L63.7,61c-2.6-3.4-10-4.9-12.2-4.9c-4,0-7.4,3.5-7.4,7.4c0,4.1,3.4,7.4,7.4,7.4c0.7,0,1.6-0.1,2.5-0.3l-7.9,8
				c-1.4,1.4-1.4,3.7,0,5l6.3,6.3c0.7,0.7,1.8,0.7,2.5,0l1.3-1.3l15.2,15.1c1.4,1.4,3.7,1.4,5,0l30.1-30.4c1.4-1.4,1.4-3.7,0-5
				L91.5,53.2l1.3-1.3c0.7-0.7,0.7-1.8,0-2.5l-6.3-6.3C85.1,41.8,82.8,41.8,81.4,43.2z M47.8,63.5c0-1,0.4-2,1.1-2.7
				c0.7-0.7,1.7-1.1,2.7-1.1c3.4,0,9.5,2.7,9.5,3.8c0,0,0,0.2-0.4,0.6c-1.7,1.7-6.9,3.3-9,3.3C49.5,67.3,47.8,65.6,47.8,63.5z
				 M87.9,87.3l-13.8,13.9L58.9,86.1l13.8-13.9L87.9,87.3z M70.2,69.7L53.8,86.1l-5.1-5l14.5-14.6l1.9-1.9L70.2,69.7z M62.5,48.6
				c0-2.1,1.8-3.8,3.8-3.8c2.1,0,3.9,1.7,3.9,3.8c0,2.2-1.5,7.3-3.2,9.1c-0.4,0.4-0.5,0.4-0.6,0.4C65.2,58.1,62.5,52.1,62.5,48.6z
				 M104.2,70.8L90.4,84.7L75.2,69.7L89,55.7L104.2,70.8z M89,50.7L72.7,67.2l-5.1-5l1.9-1.9l14.5-14.6L89,50.7z"/>
		</g>
	</g>
</g>
</svg>
