<?xml version="1.0" encoding="utf-8"?>
<!-- Generator: Adobe Illustrator 21.0.0, SVG Export Plug-In . SVG Version: 6.00 Build 0)  -->
<svg version="1.1" id="Layer_1" xmlns="http://www.w3.org/2000/svg" xmlns:xlink="http://www.w3.org/1999/xlink" x="0px" y="0px"
	 viewBox="0 0 140 140" style="enable-background:new 0 0 140 140;" xml:space="preserve">
<style type="text/css">
	.st0{fill:#F64F1E;}
	.st1{fill:#FFFFFF;}
</style>
<g>
	<g>
		<rect x="-2" y="-2" class="st0" width="144" height="144.3"/>
	</g>
	<g>
		<g>
			<g>
				<path class="st1" d="M98.9,107.3c-3.6-5.6-56.7-75.5-64.7-85.1c-1.1-1.3-2.4-0.9-2.9-0.4c-0.9,0.8-1.4,2.1,0.4,9.5
					c1.1,4.4,9.5,29.1,12.3,36.1c5.8,14.4,9.5,13.9,11.7,14.2c1,0.1,2.1-0.1,2.9-0.7c2.4-1.6,3.2-2.1,4.1-2.6
					c0.3-0.2,0.7-0.4,1.1-0.7c2.6,4.2,5.8,10.8,8.8,17.1c4.2,8.6,8.4,17.4,11.9,22c2.2,2.9,4.5,3.8,6.1,4c3.1,0.4,6.2-1.2,8.1-4.2
					C100.6,113.5,100.6,110,98.9,107.3z M95.5,114.4c-1,1.7-2.7,2.6-4.3,2.4c-1.2-0.2-2.5-1-3.6-2.5c-3.2-4.3-7.4-13-11.5-21.3
					c-3.7-7.7-7.2-14.9-10.1-19.2c-0.3-0.5-0.8-0.8-1.3-0.8c-0.4-0.1-0.9,0-1.3,0.3c-1.3,0.8-4.4,2.7-6.9,4.4
					c-0.1,0.1-0.2,0.1-0.3,0.1c-1.3,0.7-1.4-0.3-3.6-3.3C49,69.6,38.9,41.1,36,31.8c-1.1-3.6,0.1-1.6,1-0.5
					c9.6,12.3,55.2,72.7,58.7,78.1C96.8,111.1,96.3,113.1,95.5,114.4z"/>
			</g>
		</g>
		<g>
			<g>
				<path class="st1" d="M124,40.7c-0.7-0.8-2-0.8-2.7,0c-4.9,4.7-9.5,9.4-13.1,13.1c-0.9,1-1.8,1.8-2.6,2.6l-3.6-3.6l15.3-14.8
					c0.8-0.7,0.8-2,0-2.7c-0.7-0.8-1.9-0.8-2.7,0L99.3,50l-3.4-3.4l15.4-14.9c0.8-0.7,0.8-2,0-2.7c-0.7-0.8-2-0.8-2.7,0L93.2,43.9
					l-3.3-3.3l16.6-16.1c0.8-0.7,0.8-1.9,0-2.7c-0.7-0.8-1.9-0.8-2.7,0L84.7,40.3C79.8,45,80.2,52,85.5,58.4L74.6,69.2
					c-0.8,0.7-0.8,1.9,0,2.7c0.3,0.3,0.7,0.5,1.1,0.6c0.6,0.1,1.2-0.1,1.6-0.5l10.9-10.7c2.1,1.8,4.7,3,7.3,3.4
					c0.3,0.1,0.7,0.1,1,0.1c3.5,0.3,6.7-0.6,8.7-2.7c1.3-1.3,3.2-3.2,5.6-5.6c3.7-3.7,8.2-8.3,13.1-13
					C124.7,42.7,124.8,41.5,124,40.7z M102.7,59.3c-1.3,1.2-3.4,1.8-5.7,1.6c-2.7-0.2-5.3-1.5-7.3-3.6c-3.9-4-6.6-9.8-2.5-14.1
					l15.8,15.8C102.8,59.1,102.7,59.2,102.7,59.3z"/>
			</g>
		</g>
		<g>
			<g>
				<path class="st1" d="M66,86.6c-0.8-0.7-2-0.6-2.7,0.2c-7.7,8.7-21.7,24-26.4,28.2c-2.3,2.1-6,1.2-8-0.8c-2.1-2.2-1.8-5,0.9-7.6
					c6.6-6.7,16.4-14.4,23.8-20c0.8-0.6,1-1.8,0.4-2.7c-0.6-0.8-1.8-1-2.7-0.4c-7.5,5.6-17.4,13.4-24.2,20.3c-5,5-3.6,10.1-0.9,12.9
					c1.5,1.6,3.7,2.7,5.9,3.1c2.5,0.4,5.2-0.1,7.4-2c5.5-4.8,21.2-22.2,26.7-28.5C66.8,88.5,66.8,87.3,66,86.6z"/>
			</g>
		</g>
	</g>
</g>
</svg>
