<?xml version="1.0" encoding="utf-8"?>
<!-- Generator: Adobe Illustrator 21.0.0, SVG Export Plug-In . SVG Version: 6.00 Build 0)  -->
<svg version="1.1" id="Layer_1" xmlns="http://www.w3.org/2000/svg" xmlns:xlink="http://www.w3.org/1999/xlink" x="0px" y="0px"
	 viewBox="0 0 140 140" style="enable-background:new 0 0 140 140;" xml:space="preserve">
<style type="text/css">
	.st0{fill:#2196F3;}
	.st1{fill:#FFFFFF;}
</style>
<g>
	<g>
		<rect x="-2" y="-2.2" class="st0" width="144" height="144.3"/>
	</g>
	<g>
		<g>
			<path class="st1" d="M46.9,56.6c-1.2,0-2.1,0.9-2.1,2.1V65h-8.4v-6.3c0-1.2-0.9-2.1-2.1-2.1s-2.1,0.9-2.1,2.1v16.8
				c0,1.2,0.9,2.1,2.1,2.1c1.2,0,2.1-0.9,2.1-2.1v-6.3h8.4v6.3c0,1.2,0.9,2.1,2.1,2.1c1.2,0,2.1-0.9,2.1-2.1V58.7
				C49,57.6,48.1,56.6,46.9,56.6z"/>
			<path class="st1" d="M63.7,56.6h-8.4c-1.2,0-2.1,0.9-2.1,2.1v16.8c0,1.2,0.9,2.1,2.1,2.1h8.4c3.5,0,6.3-2.8,6.3-6.3v-8.4
				C70,59.4,67.2,56.6,63.7,56.6z M65.8,71.3c0,1.2-0.9,2.1-2.1,2.1h-6.3V60.8h6.3c1.2,0,2.1,0.9,2.1,2.1V71.3L65.8,71.3z"/>
			<path class="st1" d="M114,31.5H26c-3.5,0-6.3,2.8-6.3,6.3v58.7c0,3.5,2.8,6.3,6.3,6.3h35.6v4.5l-23.4,3.9
				c-1.1,0.2-1.9,1.3-1.7,2.4c0.2,1,1.1,1.8,2.1,1.8c0.1,0,0.2,0,0.3,0l25-4.2h12.2l25,4.2c0.1,0,0.2,0,0.3,0c1,0,1.9-0.7,2.1-1.8
				c0.2-1.1-0.6-2.2-1.7-2.4l-23.4-3.9v-4.5H114c3.5,0,6.3-2.8,6.3-6.3V37.8C120.3,34.3,117.5,31.5,114,31.5z M74.2,106.9h-8.4v-4.2
				h8.4V106.9z M116.1,96.5c0,1.2-0.9,2.1-2.1,2.1H26c-1.2,0-2.1-0.9-2.1-2.1V37.8c0-1.2,0.9-2.1,2.1-2.1H114c1.2,0,2.1,0.9,2.1,2.1
				V96.5z"/>
			<path class="st1" d="M86.8,56.6H74.2c-1.2,0-2.1,0.9-2.1,2.1c0,1.2,0.9,2.1,2.1,2.1h4.2v14.7c0,1.2,0.9,2.1,2.1,2.1
				c1.2,0,2.1-0.9,2.1-2.1V60.8h4.2c1.2,0,2.1-0.9,2.1-2.1S87.9,56.6,86.8,56.6z"/>
			<path class="st1" d="M106.4,56.8c-1.1-0.4-2.3,0.1-2.7,1.2l-4.3,11.5L95,58c-0.4-1.1-1.6-1.6-2.7-1.2c-1.1,0.4-1.6,1.6-1.2,2.7
				l6.3,16.8c0.3,0.8,1.1,1.4,2,1.4c0.9,0,1.7-0.5,2-1.4l6.3-16.8C108,58.4,107.5,57.2,106.4,56.8z"/>
		</g>
	</g>
</g>
</svg>
