<?xml version="1.0" encoding="utf-8"?>
<!-- Generator: Adobe Illustrator 21.0.0, SVG Export Plug-In . SVG Version: 6.00 Build 0)  -->
<svg version="1.1" id="Layer_1" xmlns="http://www.w3.org/2000/svg" xmlns:xlink="http://www.w3.org/1999/xlink" x="0px" y="0px"
	 viewBox="0 0 140 140" style="enable-background:new 0 0 140 140;" xml:space="preserve">
<style type="text/css">
	.st0{fill:#673AB7;}
	.st1{fill:#FFFFFF;}
</style>
<g>
	<g>
		<rect x="-1" y="-1.3" class="st0" width="142.6" height="142.9"/>
	</g>
	<path class="st1" d="M44.5,72.3c-2.5-1.1-5.5-0.6-7.4,1.4L33,77.8c-1,1-0.8,2.7,0.4,3.5l13.1,7.8l-5,5c-0.9,0.9-0.9,2.3,0,3.1
		c0.9,0.9,2.3,0.9,3.1,0l5.1-5.1l8.1,13.5c0.7,1.2,2.5,1.4,3.5,0.4l4.1-4.1c1.9-1.9,2.5-4.9,1.4-7.4L63.4,87l11-10l21.2,25.5
		c0.8,1,2.4,1.1,3.3,0.1c4.4-4.4,5.5-11.2,2.5-16.8l-2.7-5.1l2.4-2.4c2.6-2.6,2.6-6.8,0-9.4c-2.5-2.5-6.3-2.6-8.9-0.5l-2.7-5.1
		l15.3-14c4.6-4.1,4.8-11.1,0.4-15.4c-4.3-4.3-11.4-4.1-15.4,0.4l-14,15.3l-5.5-2.9c2.2-2.6,2.1-6.5-0.4-9c-2.6-2.6-6.8-2.6-9.4,0
		l-2.5,2.5l-4.7-2.5c-5.5-2.9-12.3-2-16.8,2.5c-0.9,0.9-0.9,2.4,0.1,3.3l25.5,21.2l-10,11L44.5,72.3z M94.7,72.1
		c0.9-0.9,2.3-0.9,3.1,0c0.9,0.9,0.9,2.3,0,3.1l-1.4,1.4l-2.2-4.1L94.7,72.1z M97.5,88c1.6,3.1,1.5,6.7-0.2,9.6L77.7,74l8.3-7.6
		C89.2,72.5,94.8,83,97.5,88z M63.6,40.9c0.9-0.9,2.3-0.9,3.1,0c0.9,0.9,0.9,2.3,0,3.1l-0.5,0.5l-4.1-2.2L63.6,40.9z M41.6,41.9
		c2.9-1.7,6.5-1.8,9.6-0.2c2.2,1.2,19.2,10.2,21.5,11.4l-7.6,8.3L41.6,41.9z M54.3,79.9c0,0,38.8-42.5,38.8-42.5
		c2.4-2.7,6.5-2.8,9-0.3c2.5,2.5,2.4,6.6-0.3,9c0,0-42.5,38.8-42.5,38.8c-0.7,0.6-0.9,1.7-0.5,2.6l4,9c0.4,0.8,0.2,1.8-0.5,2.5
		l-2.1,2.1L53,89l0.9-0.9c0.9-0.9,0.9-2.3,0-3.1c-0.9-0.9-2.3-0.9-3.1,0l-1,1l-11.6-7l2.1-2.1c0.6-0.6,1.6-0.8,2.5-0.5l9,4
		C52.6,80.8,53.6,80.6,54.3,79.9z"/>
</g>
</svg>
