<?xml version="1.0" encoding="utf-8"?>
<!-- Generator: Adobe Illustrator 21.0.0, SVG Export Plug-In . SVG Version: 6.00 Build 0)  -->
<svg version="1.1" id="Layer_1" xmlns="http://www.w3.org/2000/svg" xmlns:xlink="http://www.w3.org/1999/xlink" x="0px" y="0px"
	 viewBox="0 0 140 140" style="enable-background:new 0 0 140 140;" xml:space="preserve">
<style type="text/css">
	.st0{fill:#009688;}
	.st1{fill:#FFFFFF;}
</style>
<g>
	<g>
		<rect x="-1.1" y="-1.3" class="st0" width="142.2" height="142.5"/>
	</g>
	<path class="st1" d="M99.3,42.7C91.5,34.9,81.1,30.6,70,30.6c-11.1,0-21.5,4.3-29.3,12.1S28.6,61,28.6,72s4.3,21.5,12.1,29.3
		s18.2,12.1,29.3,12.1c11.1,0,21.5-4.3,29.3-12.1s12.1-18.2,12.1-29.3S107.1,50.6,99.3,42.7z M70,108.6c-20.2,0-36.6-16.4-36.6-36.6
		S49.8,35.4,70,35.4s36.6,16.4,36.6,36.6S90.2,108.6,70,108.6z"/>
	<path class="st1" d="M92.7,69.6h-6.5c-1.3,0-2.4,1.1-2.4,2.4c0,1.3,1.1,2.4,2.4,2.4h0.7c-1.2,8.3-8.3,14.7-16.9,14.7
		c-8.6,0-15.7-6.4-16.9-14.7h0.7c1.3,0,2.4-1.1,2.4-2.4c0-1.3-1.1-2.4-2.4-2.4h-6.5c-1.3,0-2.4,1.1-2.4,2.4c0,1.3,1.1,2.4,2.4,2.4
		h0.9C49.4,85.4,58.7,94,70,94c11.3,0,20.6-8.6,21.8-19.5h0.9c1.3,0,2.4-1.1,2.4-2.4C95.2,70.7,94.1,69.6,92.7,69.6z"/>
	<path class="st1" d="M83,60.2c1.3,0,2.4-1.1,2.4-2.4v-2.6c0-1.3-1.1-2.4-2.4-2.4c-1.3,0-2.4,1.1-2.4,2.4v2.6
		C80.6,59.1,81.7,60.2,83,60.2z"/>
	<path class="st1" d="M57,60.2c1.3,0,2.4-1.1,2.4-2.4v-2.6c0-1.3-1.1-2.4-2.4-2.4c-1.3,0-2.4,1.1-2.4,2.4v2.6
		C54.6,59.1,55.7,60.2,57,60.2z"/>
</g>
</svg>
