<?xml version="1.0" encoding="utf-8"?>
<!-- Generator: Adobe Illustrator 21.0.0, SVG Export Plug-In . SVG Version: 6.00 Build 0)  -->
<svg version="1.1" id="Layer_1" xmlns="http://www.w3.org/2000/svg" xmlns:xlink="http://www.w3.org/1999/xlink" x="0px" y="0px"
	 viewBox="0 0 140 140" style="enable-background:new 0 0 140 140;" xml:space="preserve">
<style type="text/css">
	.st0{fill:#C51162;}
	.st1{fill:#FFFFFF;}
</style>
<g>
	<g>
		<rect x="-1.3" y="-1.3" class="st0" width="142.6" height="142.9"/>
	</g>
	<g>
		<g>
			<path class="st1" d="M62.3,76c-0.7-0.7-1.8-0.7-2.5,0c-1.8,1.8-4.8,1.8-6.7,0c-0.7-0.7-1.8-0.7-2.5,0c-0.7,0.7-0.7,1.8,0,2.5
				c1.6,1.6,3.7,2.4,5.8,2.4s4.2-0.8,5.8-2.4C63,77.8,63,76.7,62.3,76z"/>
		</g>
	</g>
	<g>
		<g>
			<path class="st1" d="M89.3,76c-0.7-0.7-1.8-0.7-2.5,0c-1.8,1.8-4.8,1.8-6.7,0c-0.7-0.7-1.8-0.7-2.5,0c-0.7,0.7-0.7,1.8,0,2.5
				c1.6,1.6,3.7,2.4,5.8,2.4c2.1,0,4.2-0.8,5.8-2.4C89.9,77.8,89.9,76.7,89.3,76z"/>
		</g>
	</g>
	<g>
		<g>
			<path class="st1" d="M107.5,74.4c0-3.9-3-7.2-6.9-7.6v-2.8c0-10.3-5.1-19.4-12.9-25c-1.3-8.7-8.9-15.2-17.8-15.2
				c-8.9,0-16.4,6.5-17.8,15.2c-7.8,5.6-12.9,14.7-12.9,25v2.8c-3.9,0.4-6.9,3.6-6.9,7.6l0,4.5c0,2,0.8,4,2.2,5.4
				c1.4,1.4,3.4,2.2,5.4,2.2h0.9c3.9,13.4,14.6,24.1,28.7,27.6c0.1,0,0.3,0.1,0.4,0.1c0.1,0,0.3,0,0.4-0.1l0,0
				c3.2-0.8,6.3-2,9.3-3.6c0.9-0.5,1.2-1.5,0.7-2.4c-0.5-0.9-1.5-1.2-2.4-0.7c-2.5,1.4-5.2,2.4-8,3.2C54,106.4,42.8,92,42.8,75.4
				v-2.3l0.8-0.2c10-2.3,19.7-6.4,28.4-12c5.9,7.7,15.2,12.3,25,12.3h0.2v2.1c0,6-1.5,11.9-4.3,17.2c-0.5,0.9-0.1,1.9,0.7,2.4
				c0.3,0.1,0.6,0.2,0.8,0.2c0.6,0,1.2-0.3,1.6-0.9c1.3-2.5,2.4-5,3.1-7.7h0.8c2,0,4-0.8,5.4-2.2c1.4-1.4,2.2-3.4,2.2-5.4
				L107.5,74.4z M40,83L40,83c-1.1,0-2.1-0.4-2.9-1.2c-0.8-0.8-1.2-1.8-1.2-2.9l0-4.5c0-2,1.5-3.7,3.4-4v5C39.3,78,39.5,80.5,40,83
				L40,83L40,83z M70,27.4c6.1,0,11.3,3.7,13.4,9.1c-4.1-2-8.6-3.1-13.4-3.1s-9.4,1.1-13.4,3.1C58.7,31.1,63.9,27.4,70,27.4z
				 M97.1,69v0.8h-0.2c-8.7,0-16.8-4-22.1-10.8c1.2-0.9,2.4-1.8,3.6-2.7c0.8-0.6,0.9-1.7,0.3-2.5c-0.6-0.8-1.7-0.9-2.5-0.3
				c-9.8,7.7-21.3,13.2-33.5,16V69v-4.9c0-15,12.2-27.2,27.2-27.2s27.2,12.2,27.2,27.2L97.1,69L97.1,69z M102.8,81.8
				C102,82.6,101,83,99.9,83c0.5-2.5,0.7-5.1,0.7-7.6v-5c1.9,0.4,3.3,2,3.3,4l0,4.5C104,80,103.6,81,102.8,81.8z"/>
		</g>
	</g>
	<g>
		<g>
			<path class="st1" d="M101.6,106.6l-9.7-9.7l-3.7-9.8c-0.6-1.5-2.2-2.4-3.7-2.1c-6.6,1.2-11.9,6.5-13.1,13.1l0,0
				c-0.3,1.5,0.6,3.1,2,3.7l9.6,4l7.8,7.8c0.3,0.3,0.8,0.5,1.2,0.5s0.9-0.2,1.2-0.5c0.7-0.7,0.7-1.8,0-2.5l-6.8-6.8l4-4l8.8,8.8
				c0.7,0.7,1.8,0.7,2.5,0C102.3,108.4,102.3,107.3,101.6,106.6z M83.4,102.3l-8.7-3.6c1-5.1,5-9.2,10.2-10.2l3.4,9L83.4,102.3z"/>
		</g>
	</g>
	<g>
		<g>
			<path class="st1" d="M106.2,111.1c-0.3-0.3-0.8-0.5-1.2-0.5c-0.5,0-0.9,0.2-1.2,0.5c-0.3,0.3-0.5,0.8-0.5,1.2s0.2,0.9,0.5,1.2
				c0.3,0.3,0.8,0.5,1.2,0.5s0.9-0.2,1.2-0.5c0.3-0.3,0.5-0.8,0.5-1.2S106.5,111.5,106.2,111.1z"/>
		</g>
	</g>
</g>
</svg>
