<?xml version="1.0" encoding="utf-8"?>
<!-- Generator: Adobe Illustrator 21.0.0, SVG Export Plug-In . SVG Version: 6.00 Build 0)  -->
<svg version="1.1" id="Layer_1" xmlns="http://www.w3.org/2000/svg" xmlns:xlink="http://www.w3.org/1999/xlink" x="0px" y="0px"
	 viewBox="0 0 140 140" style="enable-background:new 0 0 140 140;" xml:space="preserve">
<style type="text/css">
	.st0{fill:#FF9800;}
	.st1{fill:#FFFFFF;}
</style>
<g>
	<rect x="-1.3" y="-1.2" class="st0" width="142.5" height="142.8"/>
</g>
<path class="st1" d="M92.8,24c-7.3,0-14.2,2.8-19.4,8c-5.2,5.2-8,12-8,19.4c0,1.5,0.2,3,0.4,4.5c0.7-0.3,1.5-0.6,2.2-0.8
	c0.7-0.2,1.5-0.4,2.3-0.5c-0.2-1.1-0.3-2.2-0.3-3.3c0-6.1,2.4-11.8,6.6-16c4.3-4.3,10-6.6,16-6.6s11.8,2.4,16,6.6
	c4.3,4.3,6.6,10,6.6,16c0,6.1-2.4,11.8-6.6,16c-4.3,4.3-10,6.6-16,6.6c-1.1,0-2.2-0.1-3.3-0.3c-0.1,0.8-0.2,1.5-0.5,2.3
	c-0.2,0.8-0.5,1.5-0.8,2.2c1.5,0.2,3,0.4,4.5,0.4c7.3,0,14.2-2.8,19.4-8c5.2-5.2,8-12,8-19.4c0-7.3-2.8-14.2-8-19.4
	C107,26.8,100.1,24,92.8,24z"/>
<path class="st1" d="M46.7,117.1L46.7,117.1c5.2,0,10.2-2,13.9-5.8c1.6-1.6,2.9-3.4,3.9-5.5c3.5-5.5,6.1-11.8,7.5-15.7l15.7,15.7
	c1.2,1.2,2.8,1.9,4.5,1.9c1.7,0,3.3-0.7,4.5-1.9l1.2-1.2c1.2-1.2,1.9-2.8,1.9-4.5c0-1.7-0.7-3.3-1.9-4.5L85.3,83l-1.7-1.7l-0.4-0.4
	c0.7-1.1,1.2-2.2,1.6-3.4c0.2-0.8,0.4-1.5,0.5-2.3c0.1-0.8,0.2-1.6,0.1-2.4c0-1.6-0.3-3.2-0.9-4.7c-0.7-1.9-1.8-3.6-3.3-5.1
	c-1.5-1.5-3.3-2.6-5.1-3.3c-1.5-0.6-3.1-0.9-4.7-0.9c-0.8,0-1.6,0-2.4,0.1c-0.8,0.1-1.6,0.3-2.3,0.5c-1.2,0.4-2.3,0.9-3.4,1.6
	l-0.4-0.4l-1.7-1.7L48.5,46.2c-1.2-1.2-2.8-1.9-4.5-1.9c-1.7,0-3.3,0.7-4.5,1.9l-1.2,1.2c-2.5,2.5-2.5,6.5,0,9L54,72.2
	c-3.9,1.4-10.2,4-15.7,7.5c-2.1,1-3.9,2.3-5.5,3.9c-7.7,7.7-7.7,20.1,0,27.8C36.5,115.1,41.4,117.1,46.7,117.1z M77.9,66.3
	c1.2,1.2,2,2.6,2.4,4c0.3,1,0.4,2,0.4,3c0,0.8-0.1,1.7-0.3,2.5c-0.2,0.6-0.4,1.2-0.6,1.7L66.7,64.4c0.6-0.3,1.1-0.5,1.7-0.6
	c0.8-0.2,1.6-0.3,2.5-0.3c1,0,2,0.1,3,0.4C75.3,64.3,76.7,65.1,77.9,66.3z M41.6,53.2c-0.7-0.7-0.7-1.7,0-2.4l1.2-1.2
	c0.3-0.3,0.7-0.5,1.2-0.5c0.5,0,0.9,0.2,1.2,0.5l12.9,12.9l1.7,1.7l1.7,1.7l16.8,16.8l1.7,1.7l1.7,1.7l12.9,12.9
	c0.3,0.3,0.5,0.7,0.5,1.2c0,0.5-0.2,0.9-0.5,1.2l-1.2,1.2c-0.6,0.6-1.8,0.6-2.4,0L76.6,88.2l-2-2L72.4,84l-1.9-1.9L60.1,71.7
	L59,70.6l0,0l-1.1-1.1l-2-2L41.6,53.2z M36.1,86.9c1.2-1.2,2.7-2.3,4.4-3l3.1-1.4l-0.3-0.3c4.8-2.7,9.8-4.7,12.9-5.8
	c0.6-0.2,1.1-0.4,1.6-0.5l1.1,1.1l8.3,8.3l1.1,1.1c-0.1,0.4-0.3,1-0.5,1.6c-1.1,3.1-3.1,8.1-5.8,12.9l-0.3-0.3l-1.4,3.1
	c-0.8,1.6-1.8,3.1-3,4.4c-2.8,2.8-6.6,4.4-10.6,4.4h0c-4,0-7.8-1.6-10.6-4.4c-2.8-2.8-4.4-6.6-4.4-10.6
	C31.7,93.5,33.2,89.7,36.1,86.9z"/>
</svg>
