<?xml version="1.0" encoding="utf-8"?>
<!-- Generator: Adobe Illustrator 22.1.0, SVG Export Plug-In . SVG Version: 6.00 Build 0)  -->
<svg version="1.1" id="Capa_1" xmlns="http://www.w3.org/2000/svg" xmlns:xlink="http://www.w3.org/1999/xlink" x="0px" y="0px"
	 viewBox="0 0 150 150" style="enable-background:new 0 0 150 150;" xml:space="preserve">
<style type="text/css">
	.st0{fill:#CE9912;}
	.st1{fill:#CFD8DC;}
	.st2{fill:#90A4AE;}
	.st3{fill:#B0BEC5;}
</style>
<g>
	<path id="XMLID_39_" class="st0" d="M33.6,117.7H18.6c1.2,1.7,2.4,3.4,3.7,5h15.1C36.1,121.1,34.8,119.4,33.6,117.7"/>
	<path id="XMLID_38_" class="st0" d="M29.4,130.2c2,1.8,4.1,3.5,6.3,5h15.1c-2.2-1.5-4.4-3.2-6.4-5H29.4z"/>
	<g>
		<path id="XMLID_37_" class="st1" d="M82.5,145.3c-34,0-61.5-31.5-61.5-70.3S48.6,4.7,82.5,4.7S144,36.2,144,75
			S116.5,145.3,82.5,145.3"/>
		<path id="XMLID_36_" class="st2" d="M21.1,75C21.1,39.1,44.6,9.5,75,5.3c-2.5-0.3-5-0.5-7.5-0.5C33.5,4.7,6,36.2,6,75
			s27.5,70.3,61.5,70.3c2.5,0,5.1-0.2,7.5-0.5C44.6,140.5,21.1,110.9,21.1,75"/>
		<path id="XMLID_35_" class="st3" d="M21.1,77.5H6c0.1,1.7,0.1,3.4,0.3,5h15.1C21.2,80.9,21.1,79.2,21.1,77.5"/>
		<path id="XMLID_34_" class="st3" d="M21.6,65h-15c-0.2,1.7-0.4,3.3-0.5,5h15.1C21.3,68.3,21.4,66.6,21.6,65"/>
		<path id="XMLID_33_" class="st3" d="M22.4,90.1H7.4c0.3,1.7,0.7,3.4,1.1,5h15.1C23.1,93.4,22.8,91.8,22.4,90.1"/>
		<path id="XMLID_32_" class="st3" d="M25.9,102.6H10.9c0.6,1.7,1.3,3.4,2.1,5H28C27.3,106,26.6,104.3,25.9,102.6"/>
		<path id="XMLID_31_" class="st3" d="M24.2,52.4h-15c-0.5,1.6-0.9,3.3-1.3,5H23C23.3,55.7,23.8,54.1,24.2,52.4"/>
		<path id="XMLID_30_" class="st3" d="M29.2,39.9H14.2c-0.8,1.6-1.6,3.3-2.3,5h15.1C27.6,43.2,28.4,41.5,29.2,39.9"/>
		<path id="XMLID_29_" class="st3" d="M39.5,24.8H24.4c-1.4,1.6-2.8,3.3-4.1,5h15.1C36.7,28.1,38.1,26.4,39.5,24.8"/>
		<path id="XMLID_28_" class="st3" d="M54.8,12.3H39.7c-2.6,1.5-5,3.2-7.4,5h15.1C49.8,15.4,52.3,13.8,54.8,12.3"/>
		<path id="XMLID_27_" class="st3" d="M82.7,131.5h-0.2c-1.8,0-3.5-0.1-5.3-0.3c-1.4-0.2-2.4-1.4-2.2-2.8c0.2-1.4,1.4-2.3,2.8-2.2
			c1.5,0.2,3.1,0.3,4.7,0.3c1.4,0,2.6,1.1,2.6,2.5C85.1,130.4,84.1,131.5,82.7,131.5 M97.3,128.8c-1,0-2-0.6-2.4-1.6
			c-0.5-1.3,0.2-2.7,1.5-3.2c1.5-0.5,2.9-1.2,4.3-1.9c1.2-0.6,2.7-0.1,3.4,1.1c0.6,1.2,0.1,2.7-1.1,3.4c-1.6,0.8-3.2,1.5-4.8,2.1
			C97.9,128.8,97.6,128.8,97.3,128.8 M63.4,126.9c-0.4,0-0.8-0.1-1.1-0.3c-1.6-0.8-3.1-1.7-4.5-2.6c-1.2-0.8-1.5-2.3-0.7-3.5
			c0.8-1.2,2.3-1.5,3.5-0.7c1.3,0.9,2.7,1.6,4.1,2.4c1.2,0.6,1.7,2.1,1.1,3.4C65.2,126.4,64.3,126.9,63.4,126.9 M113.8,118
			c-0.6,0-1.3-0.2-1.8-0.7c-1-1-1-2.6,0-3.6c1.1-1.1,2.2-2.3,3.2-3.5c0.9-1.1,2.5-1.2,3.5-0.4c1.1,0.9,1.2,2.5,0.4,3.5
			c-1.1,1.4-2.3,2.7-3.5,3.9C115.1,117.7,114.5,118,113.8,118 M48,114.4c-0.7,0-1.4-0.3-1.9-0.9c-1.1-1.3-2.1-2.7-3.1-4.2
			c-0.8-1.1-0.5-2.7,0.7-3.5c1.2-0.8,2.7-0.5,3.5,0.7c0.9,1.3,1.8,2.6,2.8,3.8c0.9,1.1,0.7,2.7-0.4,3.5
			C49.2,114.3,48.6,114.4,48,114.4 M124.9,101.5c-0.3,0-0.7-0.1-1-0.2c-1.3-0.6-1.8-2-1.3-3.3c0.6-1.4,1.2-2.9,1.7-4.4
			c0.4-1.3,1.9-2,3.2-1.6c1.3,0.4,2,1.9,1.6,3.2c-0.6,1.6-1.2,3.3-1.9,4.8C126.7,101,125.8,101.5,124.9,101.5 M38.5,97.1
			c-1,0-2-0.7-2.4-1.7c-0.6-1.6-1-3.3-1.5-5c-0.3-1.3,0.5-2.7,1.8-3c1.3-0.3,2.7,0.5,3,1.8c0.4,1.5,0.8,3.1,1.3,4.6
			c0.5,1.3-0.3,2.7-1.6,3.2C39,97.1,38.7,97.1,38.5,97.1 M129.6,82.3c-0.1,0-0.1,0-0.2,0c-1.4-0.1-2.4-1.3-2.3-2.7
			c0.1-1.5,0.2-3.1,0.2-4.6c0-1.4,1.1-2.6,2.5-2.6c1.4,0,2.5,1,2.5,2.4V75c0,1.7-0.1,3.4-0.2,5C132,81.3,130.9,82.3,129.6,82.3
			 M35.3,77.5c-1.4,0-2.5-1.1-2.5-2.5V75c0-1.7,0.1-3.4,0.2-5.1c0.1-1.4,1.3-2.4,2.7-2.3c1.4,0.1,2.4,1.3,2.3,2.7
			c-0.1,1.6-0.2,3.2-0.2,4.7C37.8,76.4,36.7,77.5,35.3,77.5 M128,62.6c-1.1,0-2.1-0.8-2.4-1.9c-0.4-1.5-0.8-3.1-1.4-4.6
			c-0.4-1.3,0.3-2.7,1.6-3.2c1.3-0.5,2.7,0.2,3.2,1.6c0.6,1.6,1.1,3.3,1.5,5c0.3,1.3-0.5,2.7-1.8,3C128.4,62.5,128.2,62.6,128,62.6
			 M38.4,58c-0.3,0-0.5,0-0.8-0.1c-1.3-0.4-2-1.9-1.6-3.2c0.6-1.6,1.2-3.3,1.9-4.8c0.6-1.3,2-1.9,3.3-1.3c1.3,0.6,1.8,2,1.3,3.3
			c-0.6,1.4-1.2,2.9-1.7,4.4C40.5,57.4,39.5,58,38.4,58 M119.9,44.5c-0.8,0-1.6-0.4-2.1-1.1c-0.9-1.3-1.8-2.6-2.8-3.8
			c-0.9-1.1-0.7-2.7,0.3-3.5c1.1-0.9,2.6-0.7,3.5,0.3c1.1,1.3,2.1,2.7,3.1,4.2c0.8,1.1,0.5,2.7-0.7,3.5
			C120.9,44.3,120.4,44.5,119.9,44.5 M48,40.7c-0.6,0-1.1-0.2-1.6-0.6c-1.1-0.9-1.2-2.5-0.4-3.5c1.1-1.3,2.3-2.7,3.5-3.9
			c1-1,2.6-1,3.5,0c1,1,1,2.6,0,3.5c-1.1,1.1-2.2,2.3-3.2,3.5C49.4,40.4,48.7,40.7,48,40.7 M105.9,30.6c-0.5,0-0.9-0.1-1.4-0.4
			c-1.3-0.9-2.7-1.6-4.1-2.3c-1.2-0.6-1.7-2.1-1.1-3.4c0.6-1.2,2.1-1.7,3.4-1.1c1.5,0.8,3.1,1.7,4.5,2.6c1.2,0.8,1.5,2.3,0.7,3.5
			C107.5,30.2,106.7,30.6,105.9,30.6 M63.3,28.2c-0.9,0-1.8-0.5-2.2-1.4c-0.6-1.2-0.1-2.7,1.1-3.4c1.6-0.8,3.2-1.5,4.8-2.1
			c1.3-0.5,2.7,0.2,3.2,1.5c0.5,1.3-0.2,2.7-1.5,3.2c-1.4,0.5-2.9,1.2-4.3,1.9C64.1,28.1,63.7,28.2,63.3,28.2 M87.4,23.8
			c-0.1,0-0.2,0-0.3,0c-1.5-0.2-3-0.3-4.6-0.3c-1.4,0-2.6-1.1-2.6-2.5c0-1.4,1.1-2.5,2.5-2.5h0.1c1.7,0,3.4,0.1,5.1,0.3
			c1.4,0.2,2.4,1.4,2.2,2.8C89.7,22.8,88.6,23.8,87.4,23.8"/>
		<g>
			<path class="st2" d="M90.7,60.7c-0.4-1,3-7.2-1.8-14.7c-9,3.1-13.9,18.1-11.7,24.4c0.4,1.2,21.6-3.4,26.8,11.5
				c2.7,7.9-1.6,16.4-9.6,21.8c0-0.1,0.2-0.3,0.5-0.4l1.3-1.4c0.9-1,1.6-1.8,2.3-2.6c0.6-0.8,1-1.4,1.4-2l0.5-0.7l-0.1,0.1l-0.5,0.5
				c-0.4,0.5-1,1-1.6,1.8c-0.6,0.8-1.4,1.6-2.3,2.5c-0.4,0.4-0.9,0.9-1.4,1.3c-0.1,0.1-0.4,0.3-0.7,0.7l-0.8,0.6
				c-0.4,0.4-1,0.7-1.5,1.1c-0.5,0.4-1.1,0.6-1.7,0.9l-1.6,0.8c-0.5,0.3-0.9,0.4-1.5,0.6l-1.3,0.4l-0.4,0.2
				c-11.9,3.2-17.9-6.9-19.4-11.2c-1.6-4.6-1.5-9.9,0.3-10.5c1.8-0.6,3.7,1.1,4,2c0.5,1.3-2,7.1-1.3,9c0.7,2.1,5,6.4,16.3,2.5
				c11.2-3.9,16.6-15.4,15.3-19c-1.3-3.7-15.6-3.6-18.4-3.6c-2.8,0-9.4-3.7-10.7-7.4c-2.3-6.7,4.1-27.2,14.6-30.9
				c4.9-1.7,10.8,5.6,12.6,10.5c1.7,4.8,0.9,13.6-0.8,14.2C95.8,64.4,91.1,61.7,90.7,60.7z M89.1,105.9l-0.5,0.2
				c-0.4,0.1-0.9,0.3-1.5,0.4c-0.5,0.2-1.2,0.4-2.1,0.6c-0.2,0.1-0.6,0.1-1.2,0.2l-1.2,0.2l-1.2,0.1l-1.2,0.1
				c-0.8,0-1.5-0.1-2.1-0.1c-0.6-0.1-1.1-0.1-1.5-0.2l-0.5-0.1l0.1,0l0.4,0.1c0.4,0.1,0.9,0.2,1.5,0.3s1.3,0.2,2.2,0.2
				c0.5,0.1,0.8-0.1,1.3,0l1.2-0.2c0.5,0.1,0.9-0.1,1.3-0.2c0.4-0.1,0.8-0.2,1.2-0.3c0.3,0,0.6-0.1,1.2-0.3l0.9-0.3l1.4-0.7
				L89.1,105.9z M84.2,48.2c0.2-0.2,0.4-0.5,0.7-0.7c-0.1,0-0.1,0.1-0.2,0.2C84.6,47.8,84.4,48,84.2,48.2c-0.2,0.1-0.5,0.3-0.8,0.6
				c-0.2,0.3-0.6,0.5-0.9,0.9c-0.4,0.4-0.6,0.8-1,1.2l-1,1.4l-1,1.6c-0.4,0.6-0.5,1.1-0.9,1.7c-0.3,0.7-0.5,1.1-0.7,1.8
				c-0.2,0.7-0.5,1.1-0.6,1.7c-0.2,0.7-0.4,1.1-0.5,1.8c-0.2,0.5-0.2,0.9-0.2,1.5c-0.1,0.5-0.1,0.9-0.2,1.3c-0.1,0.5,0.1,0.7-0.1,1
				c-0.1,0.3,0,0.4,0,0.6c0,0.1,0,0.2,0,0.3l0-0.2l0.1-0.7c0-0.2,0-0.5,0.1-1l0.3-1.3l0.3-1.5c0.2-0.5,0.3-1,0.4-1.7
				c0.2-0.5,0.5-1.1,0.7-1.7c0.2-0.5,0.4-1.1,0.8-1.7c0.3-0.7,0.5-1.1,0.9-1.7c0.2-0.7,0.6-1,1-1.6c0.2-0.5,0.7-1,0.9-1.4
				c0.4-0.4,0.6-0.8,1-1.2C83.2,49.3,83.7,48.7,84.2,48.2z M76.2,61c0,0.1,0,0.2,0,0.3c0.1,0,0.1,0,0-0.1
				C76.2,61.2,76.2,61.1,76.2,61c0.1-0.3,0.1-0.5,0.2-0.8l0.3-1l0.4-1.1c0.3-0.8,0.6-1.5,0.8-2.1c0.1-0.3,0.3-0.4,0.3-0.7l0.1-0.3
				L78,55.3c-0.2,0.2-0.2,0.3-0.4,0.6l-0.4,1L76.8,58l-0.3,1.2c-0.1,0.4-0.1,0.7-0.2,1C76.1,60.6,76.2,60.8,76.2,61z M83,71.1
				l-0.6,0c-0.1,0-0.1,0.1-0.3,0l0.2,0L83,71.1l2.4,0.3l3.2,0.4c0.6,0.1,1.2,0.2,1.9,0.4c0.6,0,1.2,0.3,1.8,0.4l1.8,0.6
				c0.3,0.1,0.6,0.1,0.9,0.3l0.8,0.4c0.3,0.1,0.6,0.2,0.8,0.4l0.7,0.3c0.6,0.4,1.1,0.6,1.3,0.9c0.5,0.3,0.9,0.6,1,0.8
				c0.4,0.3,0.6,0.5,0.7,0.7l0.6,0.6c0-0.1-0.1-0.1-0.2-0.2l-0.4-0.5c-0.2-0.2-0.4-0.4-0.7-0.7c-0.4-0.3-0.6-0.5-1-0.9
				c-0.4-0.3-0.8-0.6-1.2-0.8l-0.8-0.5c-0.3-0.1-0.6-0.2-0.8-0.4c-0.2,0-0.5-0.2-0.9-0.4c-0.3-0.1-0.5-0.2-0.9-0.3l-1.8-0.6
				l-1.8-0.5l-1.9-0.3l-1.7-0.2l-1.6-0.1L83,71.1z M97.2,60.3c0,0.3,0,0.5,0,0.4c0,0.1,0,0.1,0,0.2l0-0.1l0.2-0.5
				c0-0.3,0.1-0.5,0.2-0.7c0-0.2,0-0.5,0.1-1l0.2-0.5l0-0.6c0-0.3,0.1-0.8,0-1.2c0.1-0.5,0.1-0.8,0-1.3c0.1-0.5-0.1-0.9-0.1-1.3
				c0-0.6-0.2-1-0.2-1.4l-0.3-1.3c-0.3-0.8-0.5-1.5-0.8-2.1c-0.2-0.6-0.5-1.1-0.7-1.4c-0.1,0-0.2-0.2-0.2-0.4L95.3,47l0.2,0.6
				l0.5,1.5l0.6,2.2c0.1,0.9,0.4,1.6,0.5,2.5l0.1,1.3l0.1,1.3c-0.1,0.5,0.1,0.7,0,1.2c0.1,0.4,0,0.8-0.1,1l0,0.9L97.2,60.3z"/>
			<path class="st2" d="M83,33.2c0,0-3.1,81.7,0.9,83.7c1.4,0.7,2.5-54.9,2.5-54.9S87.5,30.5,83,33.2z"/>
		</g>
	</g>
</g>
</svg>
