<?xml version="1.0" encoding="utf-8"?>
<!-- Generator: Adobe Illustrator 21.0.0, SVG Export Plug-In . SVG Version: 6.00 Build 0)  -->
<svg version="1.1" id="Layer_1" xmlns="http://www.w3.org/2000/svg" xmlns:xlink="http://www.w3.org/1999/xlink" x="0px" y="0px"
	 viewBox="0 0 1920 1080" style="enable-background:new 0 0 1920 1080;" xml:space="preserve">
<style type="text/css">
	.st0{fill:#FFFFFF;}
</style>
<g>
	<path class="st0" d="M377.9,317.9c0-10.8,50.8-56.2,30-140.2c-92.4,0-184.9,121.7-184.9,186.4c0,12.3,208.8,37.7,208.8,191
		c0,80.9-67,144.8-157.1,169.5c0.8-0.8,3.1-1.5,6.2-2.3l16.2-8.5c11.6-6.2,20.8-11.6,29.3-16.9c8.5-5.4,13.9-10,19.3-13.9l6.9-4.6
		l-1.5,0.8l-6.2,3.1c-5.4,3.1-12.3,6.2-20.8,11.6c-8.5,5.4-17.7,10-29.3,15.4c-5.4,2.3-10.8,5.4-16.9,7.7c-1.5,0.8-4.6,1.5-8.5,3.9
		l-9.2,3.1c-5.4,2.3-11.6,3.1-17.7,5.4c-6.2,2.3-12.3,2.3-18.5,3.1l-16.9,2.3c-5.4,0.8-10,0.8-15.4,0.8h-13.1h-4.6
		C54.3,727,32,615.3,32,571.4c0-47.8,17.7-95.5,36.2-95.5s30,21.6,30,30.8c0,13.9-40.8,58.5-40.8,78.6c0,21.6,25.4,74.7,141.7,74.7
		c115.5,0,201.1-87.8,201.1-125.6c0-38.5-131.7-82.4-157.1-91.7c-25.4-8.5-74.7-63.9-74.7-102.5c0-69.3,124.8-236.5,231.9-236.5
		c50.8,0,81.7,85.5,81.7,136.3c0,49.3-35.4,127.9-52.4,127.9C413.3,368,377.9,328.7,377.9,317.9z M219.2,727h-5.4
		c-3.9,0-9.2,0-15.4-0.8c-5.4,0-12.3,0-20.8-0.8c-2.3,0-6.2-0.8-11.6-1.5l-11.6-1.5l-11.6-3.1l-11.6-3.1c-6.9-2.3-13.9-5.4-19.3-7.7
		c-5.4-3.1-10-4.6-13.1-6.9l-4.6-2.3l0.8,0.8l3.1,2.3c3.1,2.3,7.7,4.6,13.1,7.7s10.8,6.2,19.3,8.5c3.9,2.3,7.7,1.5,11.6,3.9
		l11.6,2.3c3.9,2.3,8.5,1.5,12.3,2.3c3.9,0,7.7,0.8,11.6,0.8c2.3,0.8,6.2,0.8,11.6,0.8h9.2l15.4-1.5H219.2z M357.9,183.1
		c2.3-1.5,5.4-3.1,8.5-3.9c-0.8,0-1.5,0-2.3,0.8c-0.8,0.8-3.1,1.5-6.2,2.3c-2.3,0.8-5.4,1.5-9.2,3.9c-3.1,2.3-6.9,3.1-10.8,5.4
		c-5.4,2.3-7.7,5.4-13.1,7.7l-13.9,9.2l-14.6,11.6c-5.4,3.9-8.5,8.5-13.9,12.3c-5.4,5.4-8.5,8.5-12.3,13.9
		c-3.9,5.4-7.7,8.5-10.8,13.9c-3.9,5.4-6.9,9.2-10,14.6c-3.1,3.9-4.6,7.7-6.9,13.1c-2.3,3.9-3.9,7.7-6.2,10.8
		c-2.3,3.9-1.5,6.9-3.9,9.2c-2.3,2.3-1.5,3.1-2.3,5.4c-0.8,0.8-0.8,1.5-0.8,2.3l0.8-1.5l3.1-6.2c0.8-1.5,1.5-4.6,3.9-8.5l6.9-10.8
		l7.7-13.1c3.1-3.9,6.2-8.5,9.2-13.9c3.9-3.9,7.7-8.5,11.6-13.9c3.9-3.9,6.9-9.2,12.3-13.1c5.4-5.4,8.5-8.5,13.9-12.3
		c3.9-5.4,8.5-7.7,13.9-11.6c3.9-3.9,9.2-6.9,13.1-10c5.4-2.3,7.7-5.4,13.1-7.7C345.5,189.3,351.7,185.4,357.9,183.1z M243.8,274.8
		c-0.8,0.8-0.8,1.5-0.8,2.3c0.8,0,0.8,0,0.8-0.8c0,0,0-0.8,0.8-1.5c0.8-2.3,1.5-3.9,3.9-6.9l6.2-7.7l6.9-9.2
		c5.4-6.2,10-11.6,13.9-16.9c2.3-2.3,3.9-3.1,4.6-5.4l1.5-2.3l-2.3,1.5c-2.3,0.8-3.1,2.3-5.4,4.6l-6.9,7.7l-7.7,8.5l-6.9,10
		c-2.3,3.1-3.1,6.2-5.4,8.5C244.6,270.2,244.6,272.5,243.8,274.8z M273.9,388.8l-5.4-1.5c-0.8,0-1.5,0-2.3-0.8l1.5,0.8l6.2,2.3
		l20.8,9.2l27.7,13.9c5.4,3.1,10.8,5.4,16.2,9.2c5.4,2.3,10,6.2,15.4,9.2l14.6,11.6c2.3,2.3,4.6,3.1,6.9,5.4l6.2,6.2
		c2.3,1.5,4.6,3.9,6.2,6.2l5.4,5.4c4.6,5.4,7.7,9.2,9.2,12.3c3.9,4.6,6.2,8.5,6.9,10.8c2.3,3.9,3.9,6.2,4.6,8.5l3.9,7.7
		c0-0.8,0-1.5-0.8-2.3l-2.3-6.2c-0.8-2.3-2.3-5.4-4.6-8.5c-2.3-3.9-3.9-6.2-6.2-11.6c-2.3-3.9-5.4-7.7-8.5-11.6l-5.4-6.9
		c-2.3-1.5-4.6-3.9-6.2-6.2c-1.5-0.8-3.9-3.1-6.9-6.2c-2.3-2.3-3.9-3.1-6.9-5.4l-14.6-11.6l-15.4-10l-16.2-8.5l-15.4-6.9l-13.9-6.2
		L273.9,388.8z M438.7,334.9c-0.8,3.1-1.5,4.6-1.5,3.9c-0.8,0.8-0.8,0.8-0.8,1.5l0.8-0.8l3.1-3.9c0.8-2.3,2.3-3.9,3.9-5.4
		c0.8-1.5,1.5-4.6,3.9-8.5l3.1-3.9l2.3-5.4c0.8-3.1,3.1-6.9,3.9-10.8c2.3-3.9,3.1-6.9,3.9-12.3c2.3-3.9,2.3-8.5,3.1-12.3
		c2.3-5.4,1.5-9.2,2.3-13.1l1.5-13.1c0-8.5,0-15.4-0.8-22.3c0-6.2-1.5-11.6-2.3-15.4c-0.8-0.8-0.8-2.3-0.8-4.6V207v6.2v15.4
		l-1.5,22.3c-2.3,8.5-1.5,16.2-3.9,24.7l-3.1,12.3l-3.1,12.3c-2.3,3.9-1.5,6.9-3.9,10.8c-0.8,3.9-2.3,6.9-3.9,9.2l-3.1,8.5
		L438.7,334.9z"/>
	<g>
		<path class="st0" d="M658.6,572c-26.3,53.2-69,162-143.8,162c-28.1,0-80.7-33.3-80.7-77.8c0-91.2,170.1-433.8,170.1-441.4
			c0-4.7,1.8-7,5.8-7c4.1,0,38.6,22.2,38.6,43.3c0,19.9-167.8,335-167.8,429.2c0,7.6,4.7,11.7,13.4,11.7
			c54.4,0,103.5-104.7,129.8-156.7C628.8,526.9,664.5,559.7,658.6,572z M461.6,588.3c-0.6,1.8-1.2,2.9-1.2,4.1
			c1.8-4.7,4.1-9.9,5.8-15.8c4.1-9.9,8.8-23.4,15.2-40.3c4.1-8.8,6.4-17.5,10.5-26.9c4.1-9.4,7.6-18.7,11.7-29.8
			c8.8-21,17.5-43.3,26.9-64.9c9.4-22.8,18.7-43.9,28.1-64.3c9.4-20.5,18.1-39.2,25.1-55.5l17.5-39.2l6.4-15.2
			c-1.8,4.1-4.1,9.4-7,14.6l-19.3,38.6c-7.6,16.4-17,34.5-26.3,55c-9.4,20.5-19.3,41.5-28.6,64.3c-9.4,22.8-17.5,44.4-26.3,64.9
			c-4.1,11.1-7,20.5-11.1,30.4c-4.1,9.9-7,18.7-9.9,27.5c-6.4,17-10.5,31-13.4,40.9C463.9,581.9,462.2,585.4,461.6,588.3z
			 M479.7,647.4c0.6-4.1,1.8-8.8,3.5-13.4c1.8-4.7,2.9-9.4,4.7-15.8l5.8-17l13.4-36.8l14-36.8l12.9-31.6l9.4-22.2
			c1.8-2.9,2.9-5.8,3.5-8.8l-1.2,2.3c-0.6,1.8-0.6,3.5-2.3,5.8l-10.5,22.2l-13.4,31.6l-14.6,36.2c-4.7,13.4-9.4,25.1-13.4,37.4
			l-5.3,17c-1.8,6.4-2.3,11.1-4.1,15.8c-1.8,5.3-1.8,9.4-3.5,13.4c-0.6,4.1-1.2,7.6-1.2,10.5c-0.6,1.8-0.6,4.1-0.6,7v2.3v-2.3
			c0-2.9,0-5.3,0.6-7C477.9,654.4,477.9,651.5,479.7,647.4z M601.9,271.4c1.2-2.3,2.3-4.7,2.9-7l-2.9,6.4c-1.8,4.1-5.3,9.9-8.2,17
			c-4.1,7.6-7.6,15.8-11.7,24.6c-4.1,8.8-8.8,18.1-12.9,28.1c-4.7,9.4-8.8,18.7-12.3,28.1c-4.1,8.8-7.6,17.5-10.5,24.6l-6.4,18.1
			l-2.3,4.7c-0.6,0.6-0.6,1.2-0.6,1.8l2.9-6.4c1.8-4.1,4.7-9.9,7.6-17.5c4.1-7,7-15.8,11.1-24.6l12.3-28.1
			c4.7-9.4,8.8-18.7,12.9-28.1c4.1-8.8,7-17,11.1-24.6L601.9,271.4z"/>
		<path class="st0" d="M798.3,569c0,25.7-78.3,164.9-153.8,164.9c-15.2,0-65.5-27.5-65.5-57.9c0-53.2,88.9-244.4,93.5-251.4
			c9.9-11.1,39.2,28.1,39.2,44.4c0,10.5-93,208.1-77.8,208.1c59.6,0,108.2-93.6,131.6-143.8C770.3,525.8,798.3,542.7,798.3,569z
			 M593.7,640.4l9.4-25.7c1.8-5.3,4.1-11.1,5.8-17.5l7.6-18.7c4.7-13.4,9.9-27.5,16.4-41.5l16.4-41.5c6.4-12.3,3.5-9.9,8.2-21
			c4.7-11.1,7.6-19.3,9.9-25.7c1.8-2.9,2.3-5.3,2.9-7c0.6-1.2,0.6-2.3,1.2-2.9h-0.6l-4.7,9.4l-11.1,25.1c-9.4,21-15.2,33.9-26.3,62
			c-11.7,28.1-21.6,56.1-28.6,78.9l-7.6,26.3c-1.8,4.1-1.2,5.8-1.8,7.6c-0.6,1.2-0.6,1.8-0.6,2.3
			C590.8,647.4,591.9,644.5,593.7,640.4z M617.7,594.8c1.8-5.3,2.3-8.8,4.1-12.9l1.8-5.3l-1.8,4.7c-1.8,2.9-3.5,7.6-5.3,12.9
			l-7,17.5l-7,21c-2.3,7-4.7,14-6.4,21c-1.8,6.4-3.5,12.3-4.1,18.7c-1.8,5.3-1.2,9.4-1.2,13.4c0,1.8,0.6,2.9,1.2,3.5
			c0,0.6,0,0.6,0.6,1.2c-0.6-0.6-0.6-0.6-0.6-1.2c-0.6-0.6-0.6-1.8-0.6-3.5c0-3.5,0.6-8.2,1.8-13.4c1.8-5.3,2.9-11.7,4.7-18.1l7-21
			c1.8-7,4.1-14,6.4-20.5L617.7,594.8z M697.2,366.2c0-8.8,25.7-78.3,38-78.3c12.3,0,38.6,39.8,38.6,45.6c0,5.8-41.5,66.7-49.7,66.7
			S698.9,374.3,697.2,366.2z M728.8,642.7l8.2-11.7l7.6-11.7l6.4-11.1c1.8-2.9,2.3-6.4,4.1-8.2c0.6-1.2,0.6-2.3,1.2-2.9l-1.8,2.9
			c-1.8,1.8-2.9,4.7-4.7,7.6c-2.3,2.9-4.7,6.4-7,10.5l-7.6,11.7l-8.2,11.7c-2.3,4.1-5.3,7-7.6,9.9l-5.3,7c-0.6,1.2-1.8,1.8-2.3,2.3
			l2.3-2.3c1.8-1.2,4.1-3.5,6.4-6.4C722.9,649.7,725.8,646.8,728.8,642.7z M767.3,588.9c1.8-4.1,2.3-7,4.1-9.4l1.8-3.5l-1.8,3.5
			c-1.8,2.3-3.5,4.7-5.3,8.8c-1.8,4.1-4.7,8.2-7,12.9l-8.2,14.6l-8.8,14c-2.3,4.7-5.3,8.2-7.6,12.3c-2.3,4.1-4.1,6.4-5.8,8.2
			l-1.8,2.3l-0.6,0.6l0.6-0.6c0.6-0.6,0.6,0,2.3-1.8c1.8-2.3,4.1-4.1,6.4-8.2s5.3-7.6,8.2-11.7l8.8-14l8.2-14.6L767.3,588.9z"/>
		<path class="st0" d="M1107,576.1c0,14-94.7,157.9-127.5,157.9c-32.2,0-71.9-47.9-74.8-80.7c-34.5,42.1-74.8,80.7-104.7,80.7
			c-36.8,0-81.9-57.9-81.9-88.3c0-94.7,151.4-238,215.2-238c16.4,0,28.6,8.8,38,20.5c40.3-107,84.2-209.9,84.2-214.6
			c0-21.6,46.2,21.6,46.2,37.4c0,10.5-198.2,435.6-145,435.6c27.5,0,116.4-143.8,123.4-150.8C1085.4,530.5,1107,561.4,1107,576.1z
			 M747.5,575.5c2.3-4.7,4.7-8.2,6.4-12.3c1.8-2.9,2.9-5.8,4.7-8.2l1.8-3.5c-0.6,0-0.6,0-0.6,0.6l-1.2,2.3c-1.8,1.8-3.5,4.1-5.8,8.2
			l-7,11.7l-7,14.6c-2.3,4.7-4.1,9.9-5.8,14.6c-1.8,5.3-2.3,9.4-4.1,13.4c-1.8,4.1-1.2,7.6-1.8,9.9c-0.6,1.8-0.6,2.9-0.6,3.5
			c0-0.6,0-1.8,0.6-3.5c0.6-2.3,1.2-5.3,2.9-9.4c2.3-7.6,6.4-18.1,10.5-27.5L747.5,575.5z M770.9,689.5
			c84.2,0,164.9-183,187.7-229.2c-2.9-1.8-6.4-2.3-11.1-2.3c-55.5,0-190,138-190,215.7C757.4,684.2,762.1,689.5,770.9,689.5z
			 M840.4,662c0,0.6,0,0.6-0.6,0.6l-2.3,1.2l-7,5.8c-2.9,2.3-6.4,4.7-10.5,7l-12.9,8.2c-8.8,4.7-17.5,8.2-25.7,9.9
			c-4.1,0.6-7,1.2-8.8,1.2h-3.5h0.6c0.6,0,1.2,0.6,2.9,0.6c1.8,0,4.7,0,8.8-0.6l6.4-1.2l6.4-1.8c2.3-1.8,4.7-1.2,7-2.9l7-3.5
			c9.4-5.3,17-11.1,22.8-16.4l7-5.8L840.4,662z M812.4,487.8l-2.9,2.9C810,490.1,810.6,488.9,812.4,487.8l8.8-7
			c4.1-2.9,7.6-5.8,11.7-9.9c4.1-4.1,8.8-7.6,14-11.7c4.7-4.1,9.4-7,14-11.1c4.1-4.1,8.2-6.4,12.3-9.4c4.1-2.3,6.4-4.7,8.8-6.4
			l3.5-2.3l-3.5,1.8l-9.4,5.8c-4.1,2.9-8.8,5.3-12.9,9.4c-4.7,2.9-9.9,6.4-14.6,10.5c-4.7,4.1-9.4,7.6-13.4,11.7
			c-4.7,4.1-7.6,7.6-11.7,10.5L812.4,487.8z M890.7,438.7c-9.9,6.4-19.3,12.9-26.3,19.3l-7.6,7.6c-1.8,1.8-1.2,1.8-1.8,2.3l-0.6,0.6
			l2.9-2.3l8.8-5.8c4.1-2.9,8.2-4.7,12.3-8.8l14.6-8.8c2.9-2.3,5.8-4.1,7.6-4.7c2.3-1.8,4.7-2.3,7-4.1c2.3-1.8,5.3-1.8,7-3.5
			l6.4-2.3c2.3-1.8,4.1-1.2,5.8-1.8c2.3-0.6,4.1-1.2,4.7-1.2c1.8,0,1.8-0.6,2.3-0.6h1.2H934c-0.6,0-1.2-0.6-2.9-0.6s-2.9,0-4.1,0.6
			c-2.3,0-4.1,0.6-6.4,1.2c-2.3,0.6-4.7,0-7,1.8c-2.3,1.8-4.7,1.2-7.6,2.9c-2.9,1.8-5.8,2.9-7.6,3.5L890.7,438.7z M934,531.6
			c2.3-8.8,5.3-16.4,8.2-25.1c-2.9,6.4-5.8,12.9-9.9,19.3L910,564.4c-7,12.3-13.4,23.4-19.9,33.3l-14.6,23.4l-5.3,8.8l1.8-2.3
			l4.1-5.8c4.1-5.3,9.4-13.4,15.8-22.8c4.1-4.7,6.4-9.9,10.5-15.2c4.1-5.3,7-11.1,11.1-17.5L934,531.6z M965.5,457.4l-4.1,9.9
			L965.5,457.4c2.3-6.4,6.4-15.8,11.1-26.9c4.7-11.1,9.4-24.6,15.8-38.6c5.3-14,11.1-28.1,17.5-43.9l17.5-43.9l14.6-38.6l10.5-27.5
			c1.8-4.1,2.9-7,3.5-9.9l-4.1,9.9L1041,265c-4.7,11.1-9.4,24.6-15.8,38.6c-5.3,14-11.1,28.6-17.5,43.9c-6.4,14.6-11.7,29.8-17,43.9
			c-6.4,14-10.5,27.5-15.2,38.6L965.5,457.4z M1046.2,266.8c1.8-6.4,3.5-11.1,5.3-15.2l1.8-5.8l-2.3,5.8l-5.8,14.6l-8.2,21
			c-2.9,8.8-5.3,15.8-9.4,24.6c-6.4,16.4-12.3,33.3-17,45.6l-5.8,14.6l-1.8,5.8c0.6-1.8,1.2-3.5,2.3-5.3c1.8-4.1,4.1-8.2,6.4-14.6
			l8.8-21c2.9-7.6,5.3-15.8,9.4-24.6l8.8-24.6L1046.2,266.8z"/>
		<path class="st0" d="M1329.8,536.3c9.4,4.7,17.5,15.2,17.5,28.6c0,23.4-88.3,169-188.8,169c-45,0-98.8-64.9-98.8-121
			c0-80.1,87.7-204.1,152-204.1c56.1,0,64.9,62.6,58.5,62.6c-1.8,0-2.9,0-3.5-0.6c0.6,1.8,0.6,4.1,0.6,8.2
			c0,49.1-48.5,113.4-104.1,113.4c-20.5,0-34.5-8.2-44.4-17.5c-8.8,21.6-12.9,41.5-12.9,59.6c0,25.7,4.7,57.9,28.1,57.9
			c104.7,0,167.8-138,176.6-153.2c3.5-5.8,8.8-7,16.4-4.1L1329.8,536.3z M1104.1,510.6l5.8-8.8l5.3-7c4.1-4.7,7-8.2,8.8-11.1
			l2.3-2.9l1.2-1.2l-1.2,1.2l-2.3,2.9l-9.4,9.9c-1.8,2.3-4.1,4.7-5.8,7.6c-2.3,2.3-4.1,5.3-6.4,8.2l-6.4,9.4l-5.8,9.9l-4.7,10.5
			l-4.7,10.5c-1.8,2.9-1.8,6.4-3.5,9.4c-0.6,4.1-1.8,7-2.3,9.4c-1.8,6.4-2.3,9.9-2.3,14c-0.6,1.8-0.6,3.5,0,5.3V586
			c0-1.2,0-2.3,0.6-3.5l1.2-5.8l1.8-8.2c1.8-2.3,1.2-4.7,2.9-8.8c1.8-2.9,1.8-6.4,3.5-9.4l4.7-10.5c1.8-2.9,3.5-5.8,5.3-9.9
			c1.8-4.1,3.5-7,5.3-9.9L1104.1,510.6z M1109.4,494.2l-1.2,1.8L1109.4,494.2c0.6-1.8,1.8-2.3,3.5-4.7c4.1-4.1,8.2-9.9,14.6-16.4
			c2.9-4.1,5.8-6.4,9.9-10.5l11.7-11.1c4.1-4.1,8.8-7,13.4-11.1c4.7-4.1,9.9-6.4,14.6-9.4c5.3-2.9,11.1-5.3,16.4-7
			c4.7-1.8,9.9-3.5,16.4-4.1c5.3,0,10.5-0.6,15.8,1.2c1.8,0,1.8,0.6,3.5,0.6l3.5,1.2l3.5,1.2c0.6,0.6,1.8,1.2,2.9,1.2
			c3.5,1.8,7,3.5,10.5,6.4c2.9,1.8,5.3,4.1,7.6,5.8c1.8,1.8,2.3,3.5,4.1,4.1c0.6,0.6,1.2,1.2,1.8,1.2l-1.2-1.8l-4.1-4.7
			c-1.8-1.8-4.7-3.5-7-6.4c-4.1-1.8-6.4-4.7-10.5-7c-0.6,0-1.8-0.6-3.5-1.2c-0.6-0.6-1.2-1.2-2.9-1.8c-0.6,0-1.8-0.6-4.1-1.2
			l-3.5-1.2c-5.8-1.2-11.7-1.8-17-1.2c-5.3,0.6-11.1,1.2-17.5,3.5c-5.3,1.8-11.1,4.1-16.4,7c-6.4,2.9-10.5,5.8-15.8,9.9l-13.4,11.7
			c-8.8,7.6-14.6,15.8-21,22.8c-6.4,7-9.9,13.4-12.9,17.5C1110.5,491.3,1109.9,492.5,1109.4,494.2z M1231.6,456.8
			c-2.3,0-4.7-0.6-7-0.6c-29.8,0-72.5,47.9-97.6,100c2.9,1.2,6.4,1.8,11.7,1.8C1202.9,557.9,1222.2,494.2,1231.6,456.8z
			 M1226.9,677.2l3.5-2.9L1226.9,677.2c-2.3,1.8-5.8,3.5-9.9,5.8c-4.1,1.8-9.4,4.7-14.6,6.4c-2.9,1.8-5.8,1.8-8.8,3.5
			c-2.9,1.8-5.3,2.3-9.4,2.9c-2.9,1.8-5.8,1.2-8.8,2.9l-9.4,1.8l-8.2,1.8c-2.9,0-5.3,0.6-7.6,0.6c-1.8,0.6-3.5,0.6-6.4,0.6
			c-1.8,0.6-3.5,0.6-5.3,0.6c-1.8,0-2.9,0.6-3.5,0.6h-1.2h4.7h5.3c2.9,0,4.7,0,6.4-0.6c2.9,0,5.8,0,7.6-0.6c1.8,0,4.7-0.6,8.8-1.2
			l9.4-1.8c2.9-0.6,5.3-0.6,9.4-2.3c2.9-1.8,5.8-1.2,8.8-2.9l8.8-3.5c5.3-2.9,10.5-5.3,14.6-8.2
			C1221.6,681.3,1224.5,679,1226.9,677.2z M1223.4,497.7c-0.6,0.6-0.6,0.6-0.6,1.2c-0.6,0.6-0.6,1.8-1.2,3.5l-6.4,12.3
			c-0.6,1.8-2.3,4.1-4.7,7l-5.8,8.2l-7,7.6c-2.9,2.3-5.3,5.3-8.2,7l-4.1,3.5c-1.8,1.8-2.9,1.2-4.7,2.9l-9.4,4.7
			c-2.9,1.8-6.4,1.8-9.4,3.5c-2.9,1.2-5.8,1.8-8.8,1.8l-7,1.8h-5.8c-1.2,0.6-2.3,0.6-4.1,0.6h-1.2h5.3h5.8c2.3,0,4.7-0.6,7.6-0.6
			l8.8-1.8c2.9-1.8,6.4-1.8,9.4-3.5l9.9-4.7c1.8-1.8,2.9-1.2,4.7-2.9l4.1-3.5c4.1-1.8,5.8-4.7,8.8-7l7-8.2l5.8-8.2
			c1.8-2.9,2.3-5.3,4.1-7.6c2.9-5.3,3.5-9.4,5.3-12.3L1223.4,497.7z"/>
		<path class="st0" d="M1570.1,566.1c-11.1,24.6-103.5,167.8-159.6,167.8c-9.9,0-54.4-22.2-54.4-66.7c0-59.1,60.2-141.5,60.2-169.6
			c0-2.9-15.2-11.1-26.3-15.2l-46.8,92.4c-10.5,21-39.8-22.2-32.2-36.3c11.1-23.4,23.4-51.5,35.1-74.8c-26.3-14-51.4-33.3-51.4-73.1
			c0-71.3,88.9-176,114-176c18.7,0,63.7,33.3,63.7,65.5c0,24.6-31,101.7-72.5,183.6c26.9,11.1,64.3,29.8,64.3,53.2
			c0,23.4-78.3,169.6-58.5,169.6c40.9,0,114-126.3,125.7-147.3C1540.8,523.4,1577.7,548.6,1570.1,566.1z M1333.3,307.1l6.4-11.7
			l7-10.5l5.8-9.4c4.1-6.4,7-9.9,9.4-14l3.5-5.3l-1.2,1.2l-2.9,3.5c-2.3,4.1-6.4,7-10.5,13.4c-2.3,2.3-4.7,5.8-7,8.8l-7,10.5
			c-2.9,4.1-5.3,7-7.6,11.1l-7,12.3c-1.8,4.1-4.1,8.2-6.4,12.3l-5.3,12.3l-4.7,12.3c-1.8,4.1-2.3,7.6-2.9,10.5
			c-1.8,4.1-1.8,7-2.3,9.4c-0.6,1.8-0.6,4.7-0.6,7.6c-0.6,1.8,0,2.9-0.6,4.7v1.2c0,0.6,0,0.6,0.6,0.6V386c0-1.8,0-2.9,0.6-4.7l1.8-7
			c0.6-1.8,1.2-4.7,2.9-8.8l4.1-10.5l4.7-11.7l12.3-24L1333.3,307.1z M1315.7,434.6c-0.6,0-0.6,0-0.6-0.6c0,0-0.6-0.6-1.2-2.3
			c-1.8-1.8-2.3-4.1-4.1-7c-1.8-2.9-2.9-6.4-4.1-11.1l-1.2-6.4c0-2.3-0.6-4.7-0.6-7v-6.4c0.6-1.8,0.6-4.1,0.6-7l1.8-11.7
			c1.8-2.9,1.8-5.8,2.3-8.2c0-0.6,0.6-1.8,0.6-2.3v-0.6c-0.6,0-0.6,0-0.6,0.6c0,0.6-0.6,1.8-0.6,2.3l-2.9,8.2l-1.2,5.3
			c-0.6,2.3-1.2,4.7-1.2,6.4c-0.6,1.2-0.6,3.5-0.6,6.4c-0.6,1.8-0.6,4.1-0.6,7c0,1.8,0.6,4.1,1.2,7c0,1.8,0.6,4.1,1.2,7l4.7,11.1
			c1.8,2.9,2.9,5.3,4.7,7L1315.7,434.6z M1356.1,442.8c46.8-96.5,80.7-184.8,71.9-184.8c-14,0-90.6,95.3-90.6,151.4
			C1337.4,425.2,1343.8,434,1356.1,442.8z M1394.7,380.2c4.1-8.8,7-15.8,9.9-24.6l4.7-11.1l3.5-10.5c1.8-6.4,2.9-11.7,4.7-15.8
			c0-1.8,0.6-2.9,0.6-4.7c0-0.6,0-1.2,0.6-1.2v-0.6c-0.6,1.8-1.2,4.1-2.3,5.8c-1.8,4.1-4.1,8.8-6.4,15.2
			c-4.7,13.4-11.7,29.2-19.3,45.6c-7,17-14.6,33.3-19.9,45.6l-9.4,20.5h0.6l3.5-5.3c1.8-4.1,4.7-7.6,7.6-14
			c2.9-5.3,6.4-11.7,10.5-20.5L1394.7,380.2z M1368.4,642.1c0,0.6,0,1.2-0.6,1.8c-0.6,0.6-1.2,2.3-1.8,4.7
			c-0.6,4.7-1.8,9.4-2.3,15.8c0,6.4,0.6,11.7,1.8,15.8l1.8,5.3c0.6,0.6,0.6,1.2,0.6,1.8c-0.6-0.6-0.6-1.2-0.6-1.8
			c0-1.8-0.6-2.9-0.6-5.3c-0.6-4.7-0.6-9.4-0.6-15.8l1.8-15.2c0-2.9,0-4.7,0.6-5.3V642.1z M1386.5,591.8c0-0.6,0-0.6,0.6-1.2
			C1386.5,591.3,1386.5,591.3,1386.5,591.8c-0.6,0.6-0.6,1.8-1.2,3.5l-4.7,12.9l-5.3,18.1c-0.6,2.9-1.8,6.4-2.3,10.5l-1.8,10.5
			c-0.6,4.1-1.2,7-1.2,11.1c-0.6,4.1,0,6.4-0.6,10.5l1.2,9.9l1.2,4.7c0,1.2,0.6,2.3,1.2,4.1c0,1.2,0.6,2.3,1.2,4.1
			c0.6,1.8,1.2,1.2,1.8,2.9c0.6,2.3,2.3,3.5,2.9,5.3l2.3,2.3c0,0.6,0,0.6,0.6,1.2h0.6h-0.6c0,0,0-0.6-0.6-1.2l-1.8-2.9
			c-1.8-1.8-2.3-3.5-2.9-5.3c-0.6-0.6-0.6-1.2-1.2-2.9c-0.6-1.8-1.2-2.9-1.2-3.5l-1.2-4.7c0-1.8-0.6-2.3-0.6-4.1
			c-0.6-2.9-0.6-5.8-0.6-9.9s0-6.4,0.6-10.5c0-4.1,0.6-6.4,1.2-10.5c0.6-4.1,0-7,1.8-11.1c0.6-4.1,0.6-7,2.3-9.9
			c1.8-7,2.9-12.9,4.7-18.1c1.2-6.4,2.3-10.5,3.5-12.9C1385.9,594.2,1386.5,593.6,1386.5,591.8z"/>
		<path class="st0" d="M1884,570.2c-76.6,151.4-305.2,363.7-295.8,459c1.8,25.1-54.4-21.6-54.4-33.3c-2.3-24,59-206.4,121.6-361.9
			c-49.7,52.6-97.1,100.6-107,100.6c-22.8,0-63.7-35.1-65.5-54.4c-4.7-57.9,112.8-271.9,131.6-271.9c14.6,0,34.5,32.7,34.5,41.5
			c0,8.2-109.3,178.9-104.7,218.7c9.4,0,138-159.6,198.2-224.5c13.4-22.8,24-35.7,31-35.7c14,0,49.1,29.2,42.7,41.5
			c-37.4,42.1-134.5,237.4-162.5,348.5c50.3-61.4,124.5-131.6,194.7-262.5C1856,521.7,1895.1,546.8,1884,570.2z M1519.8,586.6
			c0-0.6,0-0.6,0.6-1.2C1520.4,586,1520.4,586,1519.8,586.6c-0.6,0.6-1.2,1.2-1.8,2.9c-1.8,2.3-3.5,5.8-5.3,10.5l-6.4,14.6
			l-6.4,18.1l-2.3,9.4l-2.3,8.8c-1.8,6.4-1.8,11.7-2.3,16.4V679c0.6,2.3,1.2,3.5,1.2,3.5v1.2v-1.2c0-0.6-0.6-1.8-0.6-3.5
			c0-2.3-0.6-6.4,1.2-11.1c0.6-4.7,1.2-9.9,2.9-16.4l1.8-8.8c1.8-2.9,1.2-6.4,2.9-9.4c1.8-6.4,4.1-12.3,5.8-17.5l5.8-15.8
			c1.8-4.1,2.9-8.2,4.7-10.5C1519.2,587.8,1519.2,587.2,1519.8,586.6z M1543.2,556.2l12.9-25.7l14-25.7c4.1-8.8,7.6-15.8,11.7-22.2
			l8.8-15.8c1.8-1.8,2.9-4.1,3.5-5.8l-1.2,1.2c-0.6,1.8-1.2,2.3-2.9,4.1l-9.9,15.2c-4.1,5.3-8.2,12.9-13.4,21.6l-7,12.3l-7,12.9
			c-4.7,8.8-8.8,17.5-12.9,26.3c-2.3,4.1-3.5,8.2-5.3,12.3l-4.7,11.1l-6.4,17c-0.6,2.3-1.2,2.9-1.2,4.7c-0.6,0.6-0.6,1.2-0.6,1.8
			l2.9-5.8c1.8-4.1,3.5-9.4,7.6-16.4L1543.2,556.2z M1526.8,569c-0.6,1.2-0.6,2.3-1.2,2.9l1.8-2.9c1.8-1.8,1.8-3.5,3.5-7.6l5.3-10.5
			c1.8-4.1,4.1-8.2,5.8-12.9l11.1-23.4c1.8-4.1,2.9-7.6,4.7-10.5l-1.8,2.9c-1.8,1.8-2.3,4.7-4.1,7.6c-1.8,2.9-4.1,6.4-5.8,10.5
			l-5.8,12.3c-2.3,4.1-4.1,8.2-5.8,12.3c-1.8,4.1-2.9,8.2-4.7,11.1L1526.8,569z M1588.2,902.9c1.2-6.4,2.3-11.7,3.5-14.6l1.8-5.8
			l-1.8,5.8c-1.8,4.1-3.5,7.6-5.3,14l-6.4,20.5l-7,23.4l-6.4,24c-1.8,7.6-2.3,14.6-4.1,21c-1.2,5.8-1.8,11.1-1.8,15.2
			c0,1.8,0.6,2.3,0.6,4.1l1.2,1.2l-1.2-1.2v-4.1c0-4.1,0.6-8.8,2.3-15.2c1.2-6.4,2.9-12.9,5.3-20.5l6.4-24
			c2.3-8.8,4.7-15.8,6.4-23.4L1588.2,902.9z M1632,625.2c4.7-5.3,8.2-11.1,12.3-15.2c4.1-4.7,6.4-8.2,8.2-11.1
			c1.2-1.8,2.3-2.9,2.9-4.7c-0.6,1.2-1.8,2.3-3.5,4.1c-2.3,2.3-4.7,6.4-8.8,10.5l-26.9,32.2c-5.3,6.4-10.5,11.7-15.2,17l-13.4,14
			c-4.1,4.1-7,7.6-9.9,9.9l-3.5,3.5c0.6,0,0.6,0,1.2-0.6l2.9-2.9c2.3-1.8,6.4-4.7,10.5-8.8l14-14c4.7-5.3,9.9-10.5,15.2-17
			L1632,625.2z M1645.5,680.7l8.8-26.3l-2.9,7l-7,19.3l-10.5,26.9c-4.1,9.9-7,19.9-11.1,31l-11.1,31.6c-4.1,9.9-6.4,19.3-9.4,26.9
			l-6.4,19.9l-2.3,7c0-0.6,0-1.2,0.6-1.8c0.6-1.8,0.6-2.9,2.3-5.3l7-19.3c6.4-15.8,13.4-36.8,21-58.5c4.1-11.1,7-21,11.1-31
			C1639.6,698.3,1642.6,689.5,1645.5,680.7z M1642,619.9l14.6-15.2c6.4-6.4,12.9-12.9,19.9-21.6v-0.6c1.8-4.1,4.1-8.2,5.8-12.9
			l-8.8,10.5l-18.7,22.8l-12.9,16.4c-1.8,2.3-3.5,2.9-4.1,4.7c-0.6,0.6-1.2,1.2-1.2,1.8L1642,619.9z M1779.4,656.2l1.2-1.8l-0.6-0.6
			l-1.2,1.8c-0.6,1.8-1.8,2.9-3.5,4.7c-2.3,4.1-7,8.8-11.7,15.2c-11.1,13.4-24.6,29.8-39.2,46.8c-14,16.4-28.6,32.7-39.8,45
			l-12.3,15.8c-1.8,1.8-2.9,2.9-3.5,4.7c-0.6,0.6-0.6,0.6-0.6,1.2s0,0.6-0.6,0.6h0.6l1.2-1.8l3.5-4.1l5.8-6.4
			c2.3-2.3,5.3-4.1,8.2-8.2c5.3-6.4,12.3-12.3,19.3-19.9l21.6-24c7-8.8,14-16.4,20.5-25.1c4.1-4.1,6.4-7.6,9.4-11.7
			c2.3-4.1,5.3-7,7.6-11.1c4.7-6.4,8.8-12.3,11.1-16.4L1779.4,656.2z"/>
	</g>
	<path class="st0" d="M395.3,41.8c0,0-289.7,739.1-258.6,770.2c11,11,198.1-495.2,198.1-495.2S444.8,30.8,395.3,41.8z"/>
</g>
</svg>
